<svg width="102" height="63" viewBox="0 0 102 63" fill="none" xmlns="http://www.w3.org/2000/svg">
<path d="M25.4219 25.5469H21.2861C19.5316 25.5469 18.2669 25.1025 17.4922 24.2139C16.7174 23.3024 16.3301 22.1061 16.3301 20.625C16.3301 17.3438 18.7796 15.7031 23.6787 15.7031C28.2816 15.7031 31.7451 16.3867 34.0693 17.7539L32.0869 19.2578C30.4919 18.5286 27.6891 18.1641 23.6787 18.1641C21.7191 18.1641 20.3975 18.3805 19.7139 18.8135C19.0531 19.2464 18.7227 19.8503 18.7227 20.625C18.7227 21.3997 18.9049 22.0036 19.2695 22.4365C19.6341 22.8695 20.3063 23.0859 21.2861 23.0859H25.5244C28.6006 23.0859 31.3691 23.61 33.8301 24.6582C36.3138 25.7064 38.3532 27.1419 39.9482 28.9648C41.5433 30.765 42.7624 32.8499 43.6055 35.2197C44.4486 37.5667 44.8701 40.0846 44.8701 42.7734C44.8701 44.9609 44.5625 47.0345 43.9473 48.9941C43.332 50.9538 42.3978 52.7539 41.1445 54.3945C39.9141 56.0352 38.4215 57.4593 36.667 58.667C34.9352 59.8519 32.8617 60.7747 30.4463 61.4355C28.0537 62.1191 25.4561 62.4609 22.6533 62.4609C18.2555 62.4609 14.1312 61.7887 10.2803 60.4443C6.45215 59.1227 3.26204 57.2656 0.709961 54.873L2.69238 53.4033C5.0166 55.4997 7.92188 57.1289 11.4082 58.291C14.9173 59.4303 18.6657 60 22.6533 60C25.7751 60 28.5892 59.5557 31.0957 58.667C33.625 57.7555 35.6986 56.5137 37.3164 54.9414C38.957 53.3691 40.2103 51.5462 41.0762 49.4727C41.9648 47.3991 42.4092 45.166 42.4092 42.7734C42.4092 39.6061 41.7712 36.7464 40.4951 34.1943C39.2191 31.6195 37.2708 29.5345 34.6504 27.9395C32.0527 26.3444 28.9766 25.5469 25.4219 25.5469ZM21.2861 28.0078H25.1826C29.8083 28.0078 33.4199 29.4206 36.0176 32.2461C38.638 35.0716 39.9482 38.5807 39.9482 42.7734C39.9482 47.0345 38.4329 50.5664 35.4023 53.3691C32.3717 56.1491 28.1221 57.5391 22.6533 57.5391C19.0075 57.5391 15.6009 57.0378 12.4336 56.0352C9.26628 55.0326 6.63444 53.6198 4.53809 51.7969L6.45215 50.2588C8.32064 51.7855 10.6676 52.9704 13.4932 53.8135C16.3415 54.6566 19.3949 55.0781 22.6533 55.0781C27.4613 55.0781 31.1299 53.9274 33.6592 51.626C36.2113 49.3245 37.4873 46.3737 37.4873 42.7734C37.4873 39.2188 36.4163 36.2793 34.2744 33.9551C32.1553 31.6309 29.1133 30.4688 25.1484 30.4688H21.2861C17.9593 30.4688 15.4642 29.5573 13.8008 27.7344C12.1374 25.9115 11.3057 23.5417 11.3057 20.625C11.3057 17.7083 12.3311 15.3385 14.3818 13.5156C16.4554 11.6927 19.5544 10.7812 23.6787 10.7812C26.5726 10.7812 29.2614 11.123 31.7451 11.8066C34.2288 12.4674 36.2796 13.4245 37.8975 14.6777L35.9492 16.1816C33.1009 14.222 29.0107 13.2422 23.6787 13.2422C20.238 13.2422 17.7201 13.9258 16.125 15.293C14.5527 16.6374 13.7666 18.4147 13.7666 20.625C13.7666 22.8581 14.3477 24.6468 15.5098 25.9912C16.6947 27.3356 18.6201 28.0078 21.2861 28.0078ZM21.2861 32.9297H25.0459C28.3727 32.9297 30.8678 33.8525 32.5312 35.6982C34.1947 37.5439 35.0264 39.9023 35.0264 42.7734C35.0264 45.6901 33.9896 48.0599 31.916 49.8828C29.8652 51.7057 26.7777 52.6172 22.6533 52.6172C19.7594 52.6172 17.0592 52.2868 14.5527 51.626C12.069 50.9424 10.0182 49.974 8.40039 48.7207L10.3486 47.2168C13.1969 49.1764 17.2985 50.1562 22.6533 50.1562C26.0941 50.1562 28.6006 49.484 30.1729 48.1396C31.7679 46.7725 32.5654 44.9837 32.5654 42.7734C32.5654 40.5632 31.973 38.7858 30.7881 37.4414C29.6032 36.0742 27.6777 35.3906 25.0117 35.3906H21.2861C16.6149 35.3906 12.9577 34.0007 10.3145 31.2207C7.69401 28.418 6.38379 24.8861 6.38379 20.625C6.38379 16.3639 7.89909 12.8434 10.9297 10.0635C13.9603 7.26074 18.21 5.85938 23.6787 5.85938C27.3245 5.85938 30.7197 6.36068 33.8643 7.36328C37.0316 8.36589 39.6634 9.77865 41.7598 11.6016L39.8457 13.1396C37.9772 11.613 35.6302 10.4281 32.8047 9.58496C29.9792 8.74186 26.9372 8.32031 23.6787 8.32031C18.8708 8.32031 15.1908 9.47103 12.6387 11.7725C10.1094 14.0739 8.84473 17.0247 8.84473 20.625C8.84473 24.2025 9.91569 27.1533 12.0576 29.4775C14.1995 31.779 17.2757 32.9297 21.2861 32.9297ZM21.2861 37.8516H25.0459C26.8005 37.8516 28.0651 38.3073 28.8398 39.2188C29.6146 40.1302 30.002 41.3151 30.002 42.7734C30.002 46.0547 27.5524 47.6953 22.6533 47.6953C18.0277 47.6953 14.5527 47.0117 12.2285 45.6445L14.2109 44.1406C15.806 44.8698 18.6201 45.2344 22.6533 45.2344C24.613 45.2344 25.9232 45.0179 26.584 44.585C27.2676 44.152 27.6094 43.5482 27.6094 42.7734C27.6094 42.0215 27.4157 41.429 27.0283 40.9961C26.6637 40.5404 25.9801 40.3125 24.9775 40.3125H21.2861C18.1416 40.3125 15.2933 39.7998 12.7412 38.7744C10.2119 37.749 8.12695 36.3363 6.48633 34.5361C4.86849 32.736 3.62663 30.651 2.76074 28.2812C1.89486 25.9115 1.46191 23.3594 1.46191 20.625C1.46191 18.4375 1.76953 16.3639 2.38477 14.4043C3 12.4447 3.92285 10.6445 5.15332 9.00391C6.40658 7.36328 7.89909 5.95052 9.63086 4.76562C11.3854 3.55794 13.459 2.6237 15.8516 1.96289C18.2669 1.2793 20.876 0.9375 23.6787 0.9375C28.0765 0.9375 32.1895 1.6097 36.0176 2.9541C39.8457 4.27572 43.0358 6.13281 45.5879 8.52539L43.6055 9.99512C41.2812 7.89876 38.376 6.28092 34.8896 5.1416C31.4033 3.97949 27.6663 3.39844 23.6787 3.39844C20.557 3.39844 17.7314 3.85417 15.2021 4.76562C12.6956 5.6543 10.6221 6.88477 8.98145 8.45703C7.36361 10.0293 6.11035 11.8522 5.22168 13.9258C4.35579 15.9993 3.92285 18.2324 3.92285 20.625C3.92285 23.8379 4.57227 26.7318 5.87109 29.3066C7.16992 31.8815 9.15234 33.9551 11.8184 35.5273C14.4844 37.0768 17.6403 37.8516 21.2861 37.8516ZM84.0811 39.3555L86.542 34.707V60H84.0811V39.3555ZM89.0029 29.9219L91.4639 25.2734V60H89.0029V29.9219ZM93.9248 20.625L96.3857 15.9424V60H93.9248V20.625ZM77.416 38.1934L76.0146 35.6299L92.9678 3.39844H95.7363L77.416 38.1934ZM74.5791 32.8271L73.1436 30.2295L87.3623 3.39844H90.165L74.5791 32.8271ZM58.1045 34.9805L60.5654 39.6289V60H58.1045V34.9805ZM53.1826 25.6152L55.6436 30.2637V60H53.1826V25.6152ZM48.2607 16.25L50.7217 20.9326V60H48.2607V16.25ZM68.1533 45.2344H65.3848L45.7998 8.08105V60H43.3389V3.39844H46.1074L68.1533 45.2344ZM73.7246 45.2344H70.9219L48.9102 3.39844H51.7129L73.7246 45.2344ZM98.8467 8.08105L79.2617 45.2344H76.459L54.4814 3.39844H57.25L77.8945 42.6367L98.5049 3.39844H101.308V60H98.8467V8.08105Z" fill="black"/>
</svg>
